<?xml version="1.0" encoding="UTF-8"?>
<svg width="510px" height="317px" viewBox="0 0 510 317" version="1.1" xmlns="http://www.w3.org/2000/svg" xmlns:xlink="http://www.w3.org/1999/xlink">
    <title>Artboard</title>
    <defs>
        <linearGradient x1="0%" y1="47.8791865%" x2="100%" y2="47.8791865%" id="linearGradient-1">
            <stop stop-color="#EC952F" offset="0%"></stop>
            <stop stop-color="#EEE712" offset="40.677328%"></stop>
            <stop stop-color="#D1F249" offset="57.6222346%"></stop>
            <stop stop-color="#13B031" offset="100%"></stop>
        </linearGradient>
        <linearGradient x1="0%" y1="47.8791865%" x2="100%" y2="47.8791865%" id="linearGradient-2">
            <stop stop-color="#EC952F" offset="0%"></stop>
            <stop stop-color="#EEE712" offset="40.677328%"></stop>
            <stop stop-color="#D1F249" offset="57.6222346%"></stop>
            <stop stop-color="#13B031" offset="100%"></stop>
        </linearGradient>
        <linearGradient x1="0%" y1="47.8791865%" x2="100%" y2="47.8791865%" id="linearGradient-3">
            <stop stop-color="#EC952F" offset="0%"></stop>
            <stop stop-color="#EEE712" offset="40.677328%"></stop>
            <stop stop-color="#D1F249" offset="57.6222346%"></stop>
            <stop stop-color="#13B031" offset="100%"></stop>
        </linearGradient>
        <linearGradient x1="0%" y1="47.8791865%" x2="100%" y2="47.8791865%" id="linearGradient-4">
            <stop stop-color="#EC952F" offset="0%"></stop>
            <stop stop-color="#EEE712" offset="40.677328%"></stop>
            <stop stop-color="#D1F249" offset="57.6222346%"></stop>
            <stop stop-color="#13B031" offset="100%"></stop>
        </linearGradient>
        <linearGradient x1="0%" y1="47.8791865%" x2="100%" y2="47.8791865%" id="linearGradient-5">
            <stop stop-color="#EC952F" offset="0%"></stop>
            <stop stop-color="#EEE712" offset="40.677328%"></stop>
            <stop stop-color="#D1F249" offset="57.6222346%"></stop>
            <stop stop-color="#13B031" offset="100%"></stop>
        </linearGradient>
        <linearGradient x1="0%" y1="47.8791865%" x2="100%" y2="47.8791865%" id="linearGradient-6">
            <stop stop-color="#EC952F" offset="0%"></stop>
            <stop stop-color="#EEE712" offset="40.677328%"></stop>
            <stop stop-color="#D1F249" offset="57.6222346%"></stop>
            <stop stop-color="#13B031" offset="100%"></stop>
        </linearGradient>
        <linearGradient x1="0%" y1="47.8791865%" x2="100%" y2="47.8791865%" id="linearGradient-7">
            <stop stop-color="#EC952F" offset="0%"></stop>
            <stop stop-color="#EEE712" offset="40.677328%"></stop>
            <stop stop-color="#D1F249" offset="57.6222346%"></stop>
            <stop stop-color="#13B031" offset="100%"></stop>
        </linearGradient>
    </defs>
    <g id="Artboard" stroke="none" stroke-width="1" fill="none" fill-rule="evenodd">
        <g id="logo-qtrees" transform="translate(114.000000, 0.000000)" fill-rule="nonzero">
            <g id="Group-3">
                <polygon id="Line" fill="url(#linearGradient-1)" points="132.381672 7.80033086 147.757467 0 167.005837 8.18398286 163.245213 17.0691436 148.114698 10.6354806 134.679371 17.45235 77.7246411 17.45235 77.7246411 7.80077647"></polygon>
                <polygon id="Line-Copy" fill="url(#linearGradient-2)" points="130.582735 36.7701321 166.003572 31.8609711 182.905986 47.6872682 221.045483 40.1912892 222.898552 49.6624743 179.928945 58.107963 162.780038 42.0507492 131.248027 46.4218962 46.9209142 46.4218962 46.9209142 36.7703227"></polygon>
                <polygon id="Line-Copy-2" fill="url(#linearGradient-3)" points="194.613221 77.9503802 222.134688 65.694982 237.340423 70.8128579 234.27492 79.9623225 222.620428 76.0393687 197.210348 87.3559886 164.34297 91.3863574 130.696485 75.6931185 30.2643342 75.6932085 30.2643342 66.041635 132.827607 66.041635 165.908468 81.4707917"></polygon>
                <polygon id="Line-Copy-3" fill="url(#linearGradient-4)" points="173.589911 103.320145 218.266988 94.9208886 253 101.930949 251.099053 111.392598 218.201025 104.7528 173.706696 113.11845 122.008744 104.662316 15.6518404 104.662755 15.6518404 95.0111811 122.791707 95.0111811"></polygon>
                <polygon id="Line-Copy-4" fill="url(#linearGradient-5)" points="103.646224 123.980544 148.494842 117.124165 172.709401 131.320566 194.929857 123.805764 223.998068 130.199777 252.049527 130.200344 252.049527 139.851918 222.953968 139.851918 195.475676 133.807052 171.633368 141.871378 146.575761 127.180041 104.37852 133.632301 0 133.632301 0 123.980727"></polygon>
                <polygon id="Line-Copy-5" fill="url(#linearGradient-6)" points="163.935595 166.014957 217.594521 152.765347 237.26435 159.023081 234.350993 168.222348 217.265144 162.786505 163.713077 176.01033 118.242351 162.601316 10.6403654 162.601847 10.6403654 152.950274 119.630276 152.950274"></polygon>
                <polygon id="Line-Copy-6" fill="url(#linearGradient-7)" points="178.005101 195.351518 197.474504 181.807152 228.610059 184.110844 227.901119 193.736226 200.164709 191.683316 179.586735 206 134.827601 191.571117 30.2643342 191.571393 30.2643342 181.91982 136.338866 181.91982"></polygon>
            </g>
            <g id="Group" transform="translate(19.000000, 212.000000)" fill="#5D5D5D">
                <polygon id="Path" points="72.2595357 68.1180349 72.2595357 51.9865791 63.8432836 51.9865791 63.8432836 68.1180349"></polygon>
                <path d="M110.012438,90.3435964 L110.012438,81.7401533 L97.3880597,81.7401533 C96.5865119,81.7401533 96.185738,81.3418457 96.185738,80.5452306 L96.185738,39.7983679 L110.012438,39.7983679 L110.012438,31.7923861 L96.185738,31.7923861 L96.185738,4.43232064e-22 L85.8457711,4.43232064e-22 L85.8457711,31.7923861 L78.752073,31.7923861 L78.752073,39.7983679 L85.8457711,39.7983679 L85.8457711,76.6019858 C85.8457711,81.5138807 87.0166696,85.0140827 89.3584665,87.1025918 L89.5128524,87.2367975 C91.9575732,89.3079968 95.9051962,90.3435964 101.355721,90.3435964 L110.012438,90.3435964 Z" id="Path"></path>
                <path d="M127.446103,90.3435964 L127.325871,40.9932906 C127.325871,40.1966755 127.726645,39.7983679 128.528192,39.7983679 L128.528192,39.7983679 L143.557214,39.7983679 L143.557214,30.9559403 L137.305141,30.9559403 C133.457711,30.9559403 130.652294,31.8720476 128.888889,33.7042624 C128.078676,34.5460908 127.454593,35.6065374 127.016639,36.8856021 L126.962769,37.047656 L126.123549,31.7923861 L117.106136,31.7923861 L117.106136,90.3435964 L127.446103,90.3435964 Z" id="Path"></path>
                <path d="M175.779436,30.9559403 L176.279006,30.9588623 C181.228418,31.0173028 184.789092,31.9523516 186.961028,33.7640085 C189.205362,35.636054 190.327529,39.1212451 190.327529,44.2195818 L190.327529,44.2195818 L190.327529,67.5205736 L159.668325,67.5205736 L159.668325,81.2621842 L159.673022,81.4068819 C159.719987,82.1070319 160.119196,82.4571068 160.870647,82.4571068 L160.870647,82.4571068 L188.884743,82.4571068 L188.884743,90.9410577 L164.838308,90.9410577 L164.331725,90.9380821 C159.142525,90.8765856 155.363763,89.8618932 152.995439,87.8940049 C150.550719,85.8626364 149.328358,82.2977838 149.328358,77.1994472 L149.328358,77.1994472 L149.328358,44.2195818 L149.331229,43.7605406 C149.392467,38.9115027 150.433523,35.5793254 152.454395,33.7640085 C154.538419,31.891963 158.185462,30.9559403 163.395522,30.9559403 L163.395522,30.9559403 L175.779436,30.9559403 Z M178.78524,39.3203989 L160.870647,39.3203989 L160.725053,39.3250665 C160.020568,39.3717432 159.668325,39.7684949 159.668325,40.5153215 L159.668325,40.5153215 L159.668325,59.9925609 L179.987562,59.9925609 L179.987562,40.5153215 L179.982866,40.3706239 C179.9359,39.6704739 179.536692,39.3203989 178.78524,39.3203989 L178.78524,39.3203989 Z" id="Combined-Shape"></path>
                <path d="M227.47927,30.9559403 L227.978841,30.9588623 C232.928252,31.0173028 236.488926,31.9523516 238.660862,33.7640085 C240.905196,35.636054 242.027363,39.1212451 242.027363,44.2195818 L242.027363,44.2195818 L242.027363,67.5205736 L211.368159,67.5205736 L211.368159,81.2621842 L211.372856,81.4068819 C211.419821,82.1070319 211.81903,82.4571068 212.570481,82.4571068 L212.570481,82.4571068 L240.584577,82.4571068 L240.584577,90.9410577 L216.538143,90.9410577 L216.031559,90.9380821 C210.842359,90.8765856 207.063597,89.8618932 204.695274,87.8940049 C202.250553,85.8626364 201.028192,82.2977838 201.028192,77.1994472 L201.028192,77.1994472 L201.028192,44.2195818 L201.031063,43.7605406 C201.092301,38.9115027 202.133357,35.5793254 204.154229,33.7640085 C206.238253,31.891963 209.885296,30.9559403 215.095357,30.9559403 L215.095357,30.9559403 L227.47927,30.9559403 Z M230.485075,39.3203989 L212.570481,39.3203989 L212.424887,39.3250665 C211.720402,39.3717432 211.368159,39.7684949 211.368159,40.5153215 L211.368159,40.5153215 L211.368159,59.9925609 L231.687396,59.9925609 L231.687396,40.5153215 L231.6827,40.3706239 C231.635734,39.6704739 231.236526,39.3203989 230.485075,39.3203989 L230.485075,39.3203989 Z" id="Combined-Shape"></path>
                <path d="M276.413765,90.7020732 C281.142897,90.7020732 284.589552,89.7859658 286.753731,87.9537511 C288.91791,86.1215363 290,82.8952452 290,78.2748775 L290,78.2748775 L290,69.5519421 C290,64.6129285 288.877833,61.2073989 286.633499,59.3353534 C284.389165,57.4633079 280.661968,56.5272852 275.451907,56.5272852 L275.451907,56.5272852 L262.587065,56.5272852 C261.785517,56.5272852 261.384743,56.1289776 261.384743,55.3323625 L261.384743,55.3323625 L261.384743,40.7543061 C261.384743,39.957691 261.785517,39.5593834 262.587065,39.5593834 L262.587065,39.5593834 L286.994196,39.5593834 L286.994196,30.9559403 L265.713101,30.9559403 C260.50304,30.8762788 256.735766,31.8322169 254.411277,33.8237546 C252.086788,35.8152924 250.924544,39.3602296 250.924544,44.4585663 L250.924544,44.4585663 L250.924544,51.50861 C250.924544,56.4476236 252.046711,59.8730686 254.291045,61.7849449 C256.535379,63.6968211 260.262576,64.6527592 265.472637,64.6527592 L265.472637,64.6527592 L278.457711,64.6527592 C279.259259,64.6527592 279.660033,65.0510668 279.660033,65.8476819 L279.660033,65.8476819 L279.660033,81.2621842 C279.660033,82.0587993 279.259259,82.4571068 278.457711,82.4571068 L278.457711,82.4571068 L251.886401,82.4571068 L251.886401,90.7020732 L276.413765,90.7020732 Z" id="Path"></path>
                <path d="M36.9112769,30.9559403 C42.3618021,30.9559403 46.3895799,32.051286 48.9946103,34.2419776 C51.5996407,36.4326691 52.9021559,40.0771832 52.9021559,45.1755199 L52.9021559,45.1755199 L52.9021559,77.7557634 C52.9021559,82.7744386 51.5996407,86.3990373 48.9946103,88.6295596 L48.9946103,88.6295596 L48.8226999,88.7734472 C46.2137867,90.9080444 42.2433124,91.975343 36.9112769,91.975343 L36.9112769,91.975343 L36.0834784,91.975343 L39.9170813,105 L29.6973466,105 L26.4877488,91.975343 L15.9908789,91.975343 C10.5403538,91.975343 6.51257601,90.8600819 3.90754561,88.6295596 C1.3025152,86.3990373 0,82.7744386 0,77.7557634 L0,77.7557634 L0,45.1755199 C0,40.0771832 1.3025152,36.4326691 3.90754561,34.2419776 C6.51257601,32.051286 10.5403538,30.9559403 15.9908789,30.9559403 L15.9908789,30.9559403 L36.9112769,30.9559403 Z M40.7587065,41.8344641 L12.1434494,41.8344641 C11.3419016,41.8344641 10.9411277,42.2327717 10.9411277,43.0293868 L10.9411277,43.0293868 L10.9411277,81.2210391 C10.9411277,82.0176542 11.3419016,82.4159618 12.1434494,82.4159618 L12.1434494,82.4159618 L40.7587065,82.4159618 C41.5602543,82.4159618 41.9610282,82.0176542 41.9610282,81.2210391 L41.9610282,81.2210391 L41.9610282,43.0293868 C41.9610282,42.2327717 41.5602543,41.8344641 40.7587065,41.8344641 L40.7587065,41.8344641 Z" id="Combined-Shape"></path>
            </g>
        </g>
    </g>
</svg>